<?xml version="1.0" encoding="UTF-8"?>
<svg id="Capa_1" xmlns="http://www.w3.org/2000/svg" version="1.1" viewBox="0 0 278.62 80">
  <!-- Generator: Adobe Illustrator 29.1.0, SVG Export Plug-In . SVG Version: 2.1.0 Build 142)  -->
  <defs>
    <style>
      .st0 {
        fill: #7259ea;
      }

      .st1 {
        fill: #fff;
      }

      .st2 {
        fill: #a093f9;
      }
    </style>
  </defs>
  <g>
    <path class="st1" d="M106.96,30.77c0,4.04-2.41,6.57-6.2,7.95l3.83,5.7c2.83,4.24,5.08,4.66,5.08,6.28,0,.79-.71,1.42-1.71,1.42h-6.7c-1.17,0-2.25-.21-2.25-1.42,0-1.66-.58-2.7-3-6.28l-2.95-4.37h-3.08v4.33c0,5.24,1.66,4.66,1.66,6.28,0,.79-.67,1.46-1.66,1.46h-8.07c-1,0-1.66-.67-1.66-1.46,0-1.62,1.66-1.04,1.66-6.28v-14.94c0-5.24-1.66-4.66-1.66-6.28,0-.79.67-1.46,1.66-1.46h9.86c8.49,0,15.19,2.62,15.19,9.07ZM91.77,37.39c4.37,0,6.62-2.29,6.62-6.49s-2.25-6.49-6.62-6.49h-1.79v12.98h1.79Z"/>
    <path class="st1" d="M119.52,30.65c4.62,0,9.2,2.91,10.15,6.53,1.91,7.24-15.15,3.45-11.44,8.99,1.25,1.87,3.16,3.04,5.87,2.83,3.37-.29,4.83-2.16,5.12-2.5.54-.58,1.12-.25,1.29-.08.37.37.33.83.21,1.08-1.33,2.5-4.95,5.29-9.86,5.29-6.41,0-11.61-4.95-11.61-11.07s4.12-11.07,10.28-11.07ZM116.82,43.05c.75-1.21,2.29-1.75,4.12-2.46,4.12-1.62,1.83-7.95-1.41-7.95-3.04,0-3.91,6.32-2.71,10.4Z"/>
    <path class="st1" d="M141.66,61.48c0,.54-.46,1-1.08,1h-7.2c-.67,0-1.12-.46-1.12-1,0-1.12,1.12-.71,1.12-4.37v-18.02c0-3.7-1.12-3.29-1.12-4.41,0-.58.46-1,1.12-1,2.79,0,3.7-2.41,5.87-2.41.71,0,1.29.58,1.29,1.29v.12c.79-1.17,2.46-2.04,4.12-2.04,5.41,0,10.74,4.41,10.74,11.11s-5.12,11.03-11.19,11.03c-1.41,0-3-.54-3.66-1.12v5.45c0,3.66,1.12,3.25,1.12,4.37ZM143.66,50.79c3.08,0,4.33-3.87,4.33-9.03s-1.5-9.11-4.33-9.11c-1.37,0-3.12,1.46-3.12,3.45v11.15c0,2.37,1.62,3.54,3.12,3.54Z"/>
    <path class="st1" d="M181.6,42.96v-3.87c0-3.66-1.12-3.25-1.12-4.37,0-.58.46-1,1.08-1,2.83,0,3.75-2.41,5.91-2.41.71,0,1.29.58,1.29,1.29v1.29c1.75-1.96,4.33-3.25,6.78-3.25,3.62,0,6.62,2.41,6.62,8.49v7.61c0,3.66,1.12,3.25,1.12,4.37,0,.54-.46,1-1.08,1h-7.2c-.67,0-1.12-.46-1.12-1,0-1.12,1.12-.71,1.12-4.37v-8.95c0-2.21-1.42-3.16-2.87-3.16-2.62,0-5.04,2.62-7.2,5.95-.71,1.12-1.66,3.29-3.25,5.49,1.79-2.08,7.07-8.24,7.07-3.5v4.16c0,3.66,1.12,3.25,1.12,4.37,0,.54-.46,1-1.12,1h-7.2c-.62,0-1.08-.46-1.08-1,0-1.12,1.12-.71,1.12-4.37v-.54c-2.33,3.29-5.99,6.58-12.53,6.58s-11.61-4.95-11.61-11.07,4.12-11.07,10.28-11.07c4.62,0,9.2,2.91,10.15,6.53,1.91,7.24-15.15,3.45-11.44,8.99,1.25,1.87,3.16,3,5.87,2.83,5.2-.29,7.53-3.25,9.28-6.03ZM169.16,40.59c4.12-1.62,1.83-7.95-1.41-7.95-3.04,0-3.91,6.32-2.71,10.4.75-1.21,2.29-1.75,4.12-2.46Z"/>
    <path class="st1" d="M214.18,52.78c-4.91,0-9.86-2.66-9.86-5.87,0-1.58,1.29-2.87,2.87-2.87,1.79,0,2.5,1.33,2.66,1.87.71,2.16,2.12,4.87,5.2,4.87,1.42,0,2.87-.67,2.87-1.92,0-4.16-12.69-5.16-12.69-12.44,0-4.79,4.99-5.78,8.28-5.78s8.82,1.62,8.82,4.37c0,1.25-1,2.25-2.25,2.25-.79,0-1.58-.42-1.91-1.08-.96-1.91-2-3.54-4.49-3.54-1.21,0-2.58.42-2.58,1.79,0,3.58,12.86,4.62,12.86,11.57,0,4.37-3.87,6.78-9.78,6.78Z"/>
    <path class="st1" d="M247.39,49.71c0,1.17-2.12,2.41-4.58,2.41s-4.45-1.46-4.45-4.04v-9.4c-.58.67-1.46,1.33-2.58,2.16-2.08,1.46-2.79,3.45-2.79,5.24-.04,2.41,1.25,4.49,3.08,3.2.42-.29.96-.04.96.46,0,.21-.04.42-.17.58-.96,1.33-2.62,2.46-5.37,2.46-3.37,0-5.66-2.29-5.66-5.66,0-3.95,4.2-6.08,7.2-7.45,2.95-1.33,4.7-2.79,4.7-4.83,0-1.21-1-2.21-2.62-2.21-2.25,0-3.37,1.41-3.37,3.33,0,1.58-1.12,2-2.16,2s-2.08-.71-2.08-2.08c0-2.41,3.12-5.24,7.61-5.24,6.28,0,10.4,3.79,10.4,9.28v7.82c0,.75.17,1.25.87,1.12.58-.12,1,.21,1,.83Z"/>
    <path class="st1" d="M258.66,51.12c0,.54-.46,1-1.12,1h-7.2c-.62,0-1.08-.46-1.08-1,0-1.12,1.12-.71,1.12-4.37v-7.66c0-3.66-1.12-3.25-1.12-4.37,0-.58.46-1,1.08-1,2.83,0,3.75-2.41,5.91-2.41.71,0,1.29.58,1.29,1.29v1.08c1.54-1.91,3.62-3.04,5.7-3.04,2.95,0,5.58,1.91,5.58,5.37,0,2.75-1.71,4.12-3.54,4.12s-3.37-1.5-3.37-3.33c0-1.96.87-3.12-.33-3.16-1.12-.04-4.04,2-4.04,4.16v8.95c0,3.66,1.12,3.25,1.12,4.37Z"/>
  </g>
  <rect class="st0" x="12.3" y="33.52" width="36.9" height="37.43" rx="4.25" ry="4.25" transform="translate(-19.97 19.05) rotate(-26.32)"/>
  <rect class="st2" x="24.28" y="9.46" width="41.07" height="37.43" rx="4.25" ry="4.25" transform="translate(-7.84 22.79) rotate(-26.32)"/>
  <polygon class="st0" points="45.82 49.12 37.54 38.69 30.75 43.08 28.92 54.73 45.82 52.83 45.82 49.12"/>
  <path class="st1" d="M42.72,28.11c1.74,3.37.82,6.52-1.75,9.3l5.65,3.11c4.19,2.32,6.24,1.7,6.94,3.05.34.66.02,1.49-.81,1.92l-5.59,2.89c-.97.5-1.96.79-2.48-.21-.72-1.39-1.65-2.01-5.21-3.95l-4.35-2.37-2.57,1.33,1.87,3.61c2.26,4.37,3.4,3.17,4.09,4.52.34.66.07,1.5-.76,1.93l-6.73,3.48c-.83.43-1.67.16-2.02-.5-.7-1.35.94-1.58-1.32-5.96l-6.44-12.46c-2.26-4.37-3.4-3.17-4.1-4.52-.34-.66-.07-1.5.76-1.93l8.23-4.25c7.08-3.66,13.8-4.36,16.58,1.02ZM32.91,40.17c3.64-1.88,4.53-4.76,2.72-8.26-1.81-3.5-4.67-4.45-8.32-2.56l-1.49.77,5.59,10.83,1.49-.77Z"/>
</svg>